# xmcd
#
# Track frame offsets: 
#        150
#        16522
#        30898
#        47783
#        81189
#        100475
#        123948
#        145326
#        165255
#        180713
#        201110
#        217204
#        234992
#
# Disc length: 3333 seconds
#
# Revision: 0
# Processed by: cddbd v1.5.2PL0 Copyright (c) Steve Scherf et al.
# Submitted via: ExactAudioCopy v0.95b4
#
DISCID=a30d030d
DTITLE=The Charlie Daniels Band - The Epic Trilogy - Volume two - Disk
DTITLE=2
DYEAR=2007
DGENRE=Southern Rock
TTITLE0=The Devil went Down To Georgia
TTITLE1=Mississippi
TTITLE2=Blind Man
TTITLE3=Rainbow Ride
TTITLE4=The Legend Of Wooley Swamp
TTITLE5=Carolina (I Remember You)
TTITLE6=Lonesome Boy From Dixie
TTITLE7=No Potion For The Pain
TTITLE8=El Toreador
TTITLE9=South Sea Song
TTITLE10=Dance Gypsy Dance
TTITLE11=Money
TTITLE12=In America
EXTD=
EXTT0=
EXTT1=
EXTT2=
EXTT3=
EXTT4=
EXTT5=
EXTT6=
EXTT7=
EXTT8=
EXTT9=
EXTT10=
EXTT11=
EXTT12=
PLAYORDER=
